<mxfile host="Electron" modified="2023-11-22T09:43:10.548Z" agent="Mozilla/5.0 (Windows NT 10.0; Win64; x64) AppleWebKit/537.36 (KHTML, like Gecko) draw.io/22.0.3 Chrome/114.0.5735.289 Electron/25.8.4 Safari/537.36" etag="pIBTJXxvtmhh1XXUkOuW" version="22.0.3" type="device">
  <diagram name="Page-1" id="4Z055IPC1y57XIXENwgF">
    <mxGraphModel dx="1418" dy="827" grid="1" gridSize="10" guides="1" tooltips="1" connect="1" arrows="1" fold="1" page="1" pageScale="1" pageWidth="1169" pageHeight="827" math="0" shadow="0">
      <root>
        <mxCell id="0" />
        <mxCell id="1" parent="0" />
        <mxCell id="EhmYoZp7zKy8JZ5UCbE3-11" style="rounded=0;orthogonalLoop=1;jettySize=auto;html=1;entryX=0;entryY=0.5;entryDx=0;entryDy=0;" edge="1" parent="1" source="EhmYoZp7zKy8JZ5UCbE3-1" target="EhmYoZp7zKy8JZ5UCbE3-6">
          <mxGeometry relative="1" as="geometry" />
        </mxCell>
        <mxCell id="EhmYoZp7zKy8JZ5UCbE3-1" value="Authorized user" style="shape=umlActor;html=1;verticalLabelPosition=bottom;verticalAlign=top;align=center;" vertex="1" parent="1">
          <mxGeometry x="170" y="395" width="30" height="60" as="geometry" />
        </mxCell>
        <mxCell id="EhmYoZp7zKy8JZ5UCbE3-10" style="rounded=0;orthogonalLoop=1;jettySize=auto;html=1;entryX=1;entryY=0.5;entryDx=0;entryDy=0;exitX=0;exitY=0.5;exitDx=0;exitDy=0;" edge="1" parent="1" source="EhmYoZp7zKy8JZ5UCbE3-35" target="EhmYoZp7zKy8JZ5UCbE3-5">
          <mxGeometry relative="1" as="geometry">
            <mxPoint x="760" y="315" as="sourcePoint" />
          </mxGeometry>
        </mxCell>
        <mxCell id="EhmYoZp7zKy8JZ5UCbE3-5" value="Make oxygen measurement" style="ellipse;whiteSpace=wrap;html=1;" vertex="1" parent="1">
          <mxGeometry x="490" y="280" width="140" height="70" as="geometry" />
        </mxCell>
        <mxCell id="EhmYoZp7zKy8JZ5UCbE3-6" value="Read oxygen measurement" style="ellipse;whiteSpace=wrap;html=1;" vertex="1" parent="1">
          <mxGeometry x="290" y="390" width="140" height="70" as="geometry" />
        </mxCell>
        <mxCell id="EhmYoZp7zKy8JZ5UCbE3-7" value="Start scarecrow" style="ellipse;whiteSpace=wrap;html=1;" vertex="1" parent="1">
          <mxGeometry x="490" y="480" width="140" height="70" as="geometry" />
        </mxCell>
        <mxCell id="EhmYoZp7zKy8JZ5UCbE3-29" style="rounded=0;orthogonalLoop=1;jettySize=auto;html=1;exitX=0;exitY=0.5;exitDx=0;exitDy=0;entryX=1;entryY=0.5;entryDx=0;entryDy=0;" edge="1" parent="1" source="EhmYoZp7zKy8JZ5UCbE3-35" target="EhmYoZp7zKy8JZ5UCbE3-8">
          <mxGeometry relative="1" as="geometry">
            <mxPoint x="810" y="540" as="targetPoint" />
            <mxPoint x="760" y="345" as="sourcePoint" />
          </mxGeometry>
        </mxCell>
        <mxCell id="EhmYoZp7zKy8JZ5UCbE3-8" value="Open clamp-cage" style="ellipse;whiteSpace=wrap;html=1;" vertex="1" parent="1">
          <mxGeometry x="490" y="570" width="140" height="70" as="geometry" />
        </mxCell>
        <mxCell id="EhmYoZp7zKy8JZ5UCbE3-12" value="Close clamp-cage" style="ellipse;whiteSpace=wrap;html=1;" vertex="1" parent="1">
          <mxGeometry x="290" y="570" width="140" height="70" as="geometry" />
        </mxCell>
        <mxCell id="EhmYoZp7zKy8JZ5UCbE3-13" value="Display oxygen measurement" style="ellipse;whiteSpace=wrap;html=1;" vertex="1" parent="1">
          <mxGeometry x="290" y="280" width="140" height="70" as="geometry" />
        </mxCell>
        <mxCell id="EhmYoZp7zKy8JZ5UCbE3-17" value="&amp;lt;&amp;lt;include&amp;gt;&amp;gt;" style="edgeStyle=none;html=1;endArrow=open;verticalAlign=bottom;dashed=1;labelBackgroundColor=none;rounded=0;exitX=0;exitY=0.5;exitDx=0;exitDy=0;entryX=1;entryY=0.5;entryDx=0;entryDy=0;" edge="1" parent="1" source="EhmYoZp7zKy8JZ5UCbE3-5" target="EhmYoZp7zKy8JZ5UCbE3-13">
          <mxGeometry width="160" relative="1" as="geometry">
            <mxPoint x="270" y="500" as="sourcePoint" />
            <mxPoint x="430" y="500" as="targetPoint" />
          </mxGeometry>
        </mxCell>
        <mxCell id="EhmYoZp7zKy8JZ5UCbE3-20" value="Stop scarecrow" style="ellipse;whiteSpace=wrap;html=1;" vertex="1" parent="1">
          <mxGeometry x="290" y="480" width="140" height="70" as="geometry" />
        </mxCell>
        <mxCell id="EhmYoZp7zKy8JZ5UCbE3-27" value="&amp;lt;&amp;lt;extend&amp;gt;&amp;gt;" style="edgeStyle=none;html=1;endArrow=open;verticalAlign=bottom;dashed=1;labelBackgroundColor=none;rounded=0;exitX=0;exitY=0.5;exitDx=0;exitDy=0;entryX=1;entryY=0.5;entryDx=0;entryDy=0;" edge="1" parent="1" source="EhmYoZp7zKy8JZ5UCbE3-7" target="EhmYoZp7zKy8JZ5UCbE3-20">
          <mxGeometry width="160" relative="1" as="geometry">
            <mxPoint x="450" y="490" as="sourcePoint" />
            <mxPoint x="610" y="490" as="targetPoint" />
          </mxGeometry>
        </mxCell>
        <mxCell id="EhmYoZp7zKy8JZ5UCbE3-28" style="rounded=0;orthogonalLoop=1;jettySize=auto;html=1;entryX=1;entryY=0.5;entryDx=0;entryDy=0;exitX=0;exitY=0.5;exitDx=0;exitDy=0;" edge="1" parent="1" source="EhmYoZp7zKy8JZ5UCbE3-35" target="EhmYoZp7zKy8JZ5UCbE3-7">
          <mxGeometry relative="1" as="geometry">
            <mxPoint x="760" y="335.6896551724137" as="sourcePoint" />
          </mxGeometry>
        </mxCell>
        <mxCell id="EhmYoZp7zKy8JZ5UCbE3-31" value="&amp;lt;&amp;lt;include&amp;gt;&amp;gt;" style="edgeStyle=none;html=1;endArrow=open;verticalAlign=bottom;dashed=1;labelBackgroundColor=none;rounded=0;exitX=0.5;exitY=1;exitDx=0;exitDy=0;entryX=0.5;entryY=0;entryDx=0;entryDy=0;" edge="1" parent="1" source="EhmYoZp7zKy8JZ5UCbE3-13" target="EhmYoZp7zKy8JZ5UCbE3-6">
          <mxGeometry width="160" relative="1" as="geometry">
            <mxPoint x="140" y="220" as="sourcePoint" />
            <mxPoint x="420" y="400" as="targetPoint" />
          </mxGeometry>
        </mxCell>
        <mxCell id="EhmYoZp7zKy8JZ5UCbE3-33" value="Automatic oxygen handling system" style="rounded=0;whiteSpace=wrap;html=1;fillColor=none;strokeColor=#d3d3d3;strokeWidth=2;labelPosition=center;verticalLabelPosition=middle;align=center;verticalAlign=top;" vertex="1" parent="1">
          <mxGeometry x="240" y="220" width="480" height="464" as="geometry" />
        </mxCell>
        <mxCell id="EhmYoZp7zKy8JZ5UCbE3-35" value="&amp;lt;&amp;lt;actor&amp;gt;&amp;gt;&lt;br&gt;&lt;br&gt;&lt;b&gt;System&lt;br&gt;&lt;/b&gt;" style="html=1;align=center;verticalAlign=middle;dashed=0;whiteSpace=wrap;" vertex="1" parent="1">
          <mxGeometry x="780" y="390" width="160" height="70" as="geometry" />
        </mxCell>
        <mxCell id="EhmYoZp7zKy8JZ5UCbE3-41" value="&amp;lt;&amp;lt;extend&amp;gt;&amp;gt;" style="edgeStyle=none;html=1;endArrow=open;verticalAlign=bottom;dashed=1;labelBackgroundColor=none;rounded=0;exitX=0;exitY=0.5;exitDx=0;exitDy=0;entryX=1;entryY=0.5;entryDx=0;entryDy=0;" edge="1" parent="1" source="EhmYoZp7zKy8JZ5UCbE3-8" target="EhmYoZp7zKy8JZ5UCbE3-12">
          <mxGeometry width="160" relative="1" as="geometry">
            <mxPoint x="480" y="640" as="sourcePoint" />
            <mxPoint x="390" y="640" as="targetPoint" />
          </mxGeometry>
        </mxCell>
      </root>
    </mxGraphModel>
  </diagram>
</mxfile>
